<svg width="578" height="535" viewBox="0 0 578 535" fill="none" xmlns="http://www.w3.org/2000/svg">
<path d="M148.169 501.274C229.983 501.143 296.299 496.73 296.291 491.418C296.282 486.105 229.952 481.905 148.138 482.037C66.3235 482.168 0.00690981 486.581 0.0154335 491.893C0.0239572 497.206 66.3544 501.406 148.169 501.274Z" fill="#E6E6E6"/>
<path d="M461.519 375.236C525.759 375.133 577.83 371.668 577.824 367.497C577.817 363.326 525.735 360.028 461.495 360.131C397.255 360.234 345.184 363.699 345.191 367.87C345.197 372.041 397.28 375.339 461.519 375.236Z" fill="#E6E6E6"/>
<path d="M170.134 229.75L186.814 225.11C186.814 225.11 193.348 223.807 189.356 211.059C185.363 198.31 177.445 201.878 177.445 201.878L162.648 206.173L156.806 207.976L165.026 219.497L165.715 227.176L170.134 229.75Z" fill="#3F3D56"/>
<path d="M137.902 196.066L132.669 216.952L159.484 242.915L161.789 243.493L167.939 241.766L173.173 220.882L167.872 215.313L173.29 213.894L161.727 202.679L155.693 203.944L150.853 199.143L154.119 197.839L154.428 196.61L150.47 193.498L137.902 196.066Z" fill="#3F3D56"/>
<path d="M163.025 225.524L159.561 239.345L143.58 224.25L147.582 210.237L163.025 225.524Z" fill="#6C63FF"/>
<path d="M137.902 196.066L137.168 198.995L163.833 224.91L166.138 225.487L172.097 223.876L172.424 223.869L173.173 220.882L167.872 215.313L173.29 213.894L161.727 202.679L155.693 203.944L150.853 199.143L154.119 197.839L154.428 196.61L150.47 193.498L137.902 196.066Z" stroke="#3F3D56" stroke-miterlimit="10"/>
<path d="M152.372 196.34C152.574 195.534 151.774 194.64 150.585 194.343C149.397 194.046 148.27 194.458 148.068 195.264C147.866 196.069 148.666 196.963 149.854 197.261C151.043 197.558 152.17 197.146 152.372 196.34Z" fill="#6C63FF"/>
<path d="M169.311 218.692C169.513 217.886 168.714 216.992 167.525 216.695C166.337 216.398 165.209 216.81 165.008 217.615C164.806 218.421 165.605 219.315 166.794 219.613C167.982 219.91 169.109 219.498 169.311 218.692Z" fill="#6C63FF"/>
<path d="M181.216 255.767L177.579 243.411C177.579 243.411 187.037 220.878 176.124 218.698C165.211 216.517 164.484 239.776 164.484 239.776L168.849 253.586L181.216 255.767Z" fill="#FFB6B6"/>
<path d="M113.68 231.741C129.64 231.741 142.579 218.815 142.579 202.869C142.579 186.923 129.64 173.997 113.68 173.997C97.7191 173.997 84.7805 186.923 84.7805 202.869C84.7805 218.815 97.7191 231.741 113.68 231.741Z" fill="#FFB6B6"/>
<path d="M123.029 223.25C123.029 223.25 124.729 244.479 128.979 246.178C133.229 247.876 90.9827 259.765 90.9827 259.765L103.732 245.329C103.732 245.329 98.3802 223.25 92.4304 218.155L123.029 223.25Z" fill="#FFB6B6"/>
<path d="M163.756 249.225L175.396 247.772C175.396 247.772 189.219 255.04 189.219 264.489C189.219 273.938 197.222 289.202 197.222 289.202C197.222 289.202 203.042 309.554 189.947 311.007C176.851 312.461 165.211 289.202 165.211 289.202L163.756 249.225Z" fill="#6C63FF"/>
<path d="M170.304 364.794L193.769 348.644C197.481 346.042 201.886 344.608 206.419 344.526C210.952 344.444 215.406 345.718 219.209 348.184C222.442 350.338 224.867 353.164 224.867 356.799C224.867 367.701 200.859 393.141 200.859 393.141C200.859 393.141 182.671 433.118 165.211 434.571C153.725 435.612 142.309 437.311 131.018 439.659C131.018 439.659 139.02 468.733 134.655 476.728C130.29 484.724 113.557 494.173 112.102 493.446C110.647 492.719 90.2766 473.821 81.5464 446.928C72.8162 420.034 66.996 399.683 74.9987 398.229C83.0014 396.775 170.304 364.794 170.304 364.794Z" fill="#2F2E41"/>
<path d="M222.685 354.618C222.685 354.618 227.778 353.891 227.05 366.248C226.323 378.604 224.14 422.942 220.502 431.664C216.865 440.386 216.137 450.562 217.592 454.196C219.047 457.83 221.957 463.645 216.865 464.372C211.772 465.099 190.674 462.191 188.492 461.465C186.309 460.738 197.222 432.391 195.767 430.937C194.312 429.483 192.857 395.322 192.857 395.322L222.685 354.618Z" fill="#2F2E41"/>
<path d="M215.41 462.192C215.41 462.192 227.777 458.557 229.233 466.553C229.233 466.553 231.415 478.909 221.957 483.27C215.854 486.152 210.012 489.556 204.497 493.446C204.497 493.446 189.219 499.261 188.491 491.992C187.764 484.724 191.402 458.557 191.402 458.557L215.41 462.192Z" fill="#2F2E41"/>
<path d="M133.2 470.914L109.92 452.016C109.92 452.016 114.285 475.275 108.465 479.636L105.806 487.401L113.251 493.485C113.251 493.485 136.11 489.812 133.2 470.914Z" fill="#2F2E41"/>
<path d="M100.462 438.932C100.462 438.932 115.74 443.293 113.557 458.557C111.375 473.821 108.576 490.404 108.576 490.404C108.576 490.404 107.737 531.242 96.8244 534.149C85.9117 537.057 83.0015 531.242 83.0015 531.242C83.0015 531.242 70.5967 499.33 74.2713 489.812C78.7191 478.291 85.1283 465.354 83.0015 461.465C80.9088 457.637 84.4565 436.752 100.462 438.932Z" fill="#2F2E41"/>
<path d="M91.7316 238.323C91.7316 238.323 97.5518 239.05 107.01 240.503C116.467 241.957 123.015 234.688 128.108 236.142C133.2 237.596 175.396 247.772 175.396 247.772L171.747 275.727C170.55 284.89 167.579 293.664 163.773 302.086C157.637 315.665 166.729 358.206 175.396 366.248C182.935 373.243 192.857 374.97 181.944 387.326C171.031 399.683 152.116 410.585 113.557 406.951C74.9987 403.317 69.9061 404.044 69.9061 398.229C69.9061 392.414 83.6282 316.095 79.2631 311.734C74.898 307.373 72.7154 303.012 72.7154 300.831C72.7154 299.374 68.1643 282.977 65.1465 272.264C62.9544 264.702 63.7701 256.587 67.4235 249.612C68.7892 247.059 70.351 245.098 71.9879 244.864C77.0805 244.137 73.5436 240.503 77.1812 240.503C80.8188 240.503 83.0014 241.23 85.1839 240.503L91.7316 238.323Z" fill="#6C63FF"/>
<path d="M147.493 183.394C147.493 183.394 146.835 147.715 111.782 164.605C111.782 164.605 84.8284 163.655 81.0564 197.718L77.4094 233.38L81.3161 230.446L83.9335 234.479L91.0724 235.207L93.1566 228.934L95.6267 235.816L152.824 233.137C152.824 233.137 125.378 221.934 121.037 195.259L126.594 199.628L147.493 183.394Z" fill="#2F2E41"/>
<path d="M81.6126 183.708C89.5252 183.708 95.9396 177.299 95.9396 169.394C95.9396 161.489 89.5252 155.08 81.6126 155.08C73.7001 155.08 67.2856 161.489 67.2856 169.394C67.2856 177.299 73.7001 183.708 81.6126 183.708Z" fill="#2F2E41"/>
<path d="M95.7067 163.778C94.9443 160.22 92.8527 157.085 89.858 155.013C86.8633 152.942 83.1908 152.088 79.5884 152.627C79.8756 152.547 80.159 152.459 80.4546 152.396C82.2946 152.003 84.1939 151.977 86.0442 152.318C87.8945 152.658 89.6594 153.36 91.2384 154.382C92.8173 155.404 94.1792 156.727 95.2464 158.275C96.3136 159.823 97.0651 161.566 97.4581 163.404C97.8511 165.243 97.8778 167.14 97.5368 168.989C97.1957 170.837 96.4936 172.601 95.4704 174.178C94.4473 175.756 93.1231 177.116 91.5736 178.182C90.0241 179.249 88.2796 180 86.4397 180.392C86.144 180.455 85.8495 180.491 85.5545 180.535C89.063 179.556 92.0661 177.279 93.9523 174.165C95.8385 171.052 96.4659 167.337 95.7067 163.778Z" fill="#2F2E41"/>
<path d="M446.256 63.4777C459.299 63.4777 469.872 52.9143 469.872 39.8838C469.872 26.8532 459.299 16.2898 446.256 16.2898C433.214 16.2898 422.64 26.8532 422.64 39.8838C422.64 52.9143 433.214 63.4777 446.256 63.4777Z" fill="#2F2E41"/>
<path d="M458.69 55.5913C458.69 55.5913 458.334 70.1552 459.757 70.5104C461.179 70.8656 440.202 76.5491 440.202 76.5491L438.069 56.657L458.69 55.5913Z" fill="#FFB8B8"/>
<path d="M293.006 179.917C293.006 179.917 277.362 179.917 277.007 178.141C276.651 176.365 273.451 192.705 273.451 192.705L279.851 194.836C279.851 194.836 291.94 189.508 293.006 189.508C294.073 189.508 293.006 179.917 293.006 179.917Z" fill="#FFB8B8"/>
<path d="M275.94 186.311C275.94 186.311 278.784 176.72 282.34 176.365C282.34 176.365 270.251 168.55 269.896 166.064C269.54 163.577 265.274 157.183 263.496 159.314C261.718 161.446 261.718 195.191 264.918 198.743C268.118 202.296 282.34 193.751 282.34 193.751C282.34 193.751 273.451 189.863 275.94 186.311Z" fill="#2F2E41"/>
<path d="M469.001 322.359L471.845 337.633L458.69 339.764V322.359H469.001Z" fill="#FFB8B8"/>
<path d="M469.001 335.857C469.001 335.857 471.134 329.108 472.556 330.173C473.978 331.239 476.112 337.988 475.756 339.764C475.401 341.54 472.912 355.394 473.978 357.88C475.045 360.367 468.645 373.155 460.468 372.089C452.29 371.023 453.001 363.919 453.001 363.919L455.846 352.907L456.912 335.502C456.912 335.502 466.156 334.081 469.001 335.857Z" fill="#2F2E41"/>
<path d="M454.517 24.8143C459.914 24.8143 464.289 20.4433 464.289 15.0513C464.289 9.65933 459.914 5.28827 454.517 5.28827C449.12 5.28827 444.745 9.65933 444.745 15.0513C444.745 20.4433 449.12 24.8143 454.517 24.8143Z" fill="#2F2E41"/>
<path d="M467.547 9.76301C467.547 7.34978 466.652 5.02209 465.035 3.22897C463.419 1.43586 461.195 0.304377 458.792 0.052784C459.131 0.0176881 459.47 6.56329e-05 459.81 0C462.401 0.0023757 464.884 1.03202 466.715 2.86269C468.545 4.69335 469.574 7.17526 469.574 9.76302C469.574 12.3508 468.545 14.8327 466.715 16.6634C464.884 18.494 462.401 19.5237 459.81 19.526C459.47 19.5259 459.131 19.5083 458.792 19.4733C461.195 19.2217 463.419 18.0902 465.035 16.2971C466.652 14.5039 467.547 12.1762 467.547 9.76301Z" fill="#2F2E41"/>
<path d="M446.246 65.5374C454.493 65.5374 461.179 58.8579 461.179 50.6183C461.179 42.3787 454.493 35.6992 446.246 35.6992C437.999 35.6992 431.313 42.3787 431.313 50.6183C431.313 58.8579 437.999 65.5374 446.246 65.5374Z" fill="#FFB8B8"/>
<path d="M475.756 154.341C475.756 154.341 475.045 172.102 472.201 181.338C469.356 190.574 459.102 256.347 461.235 261.32C463.368 266.293 474.334 321.293 471.845 324.49C469.356 327.687 457.623 326.621 457.623 326.621L441.68 259.899C441.68 259.899 444.824 186.311 418.513 184.535C392.203 182.759 349.182 181.693 349.182 181.693C349.182 181.693 321.45 189.863 309.006 189.508C296.562 189.153 289.451 192.705 289.451 192.705L287.318 178.141L342.427 166.064C342.427 166.064 392.914 148.658 420.647 153.276C448.379 157.894 475.756 154.341 475.756 154.341Z" fill="#2F2E41"/>
<path d="M455.846 65.8926C455.846 65.8926 460.112 63.4061 461.179 65.8926C462.245 68.3791 469.712 70.5104 472.556 68.3791C475.401 66.2478 482.512 69.0896 482.512 69.0896L490.334 92.1786C490.334 92.1786 486.423 112.071 482.867 123.082C479.312 134.094 477.889 156.828 479.312 158.959C480.734 161.091 450.868 169.616 436.291 164.288C421.713 158.959 418.513 152.921 418.513 152.921C418.513 152.921 434.513 130.187 429.18 119.53C423.847 108.874 428.113 96.7965 428.113 96.7965L425.98 84.7191L438.068 77.97C438.068 77.97 438.779 71.5761 441.624 71.5761C444.468 71.5761 455.846 65.8926 455.846 65.8926Z" fill="#D0CDE1"/>
<path d="M431.313 85.0742H425.98C424.501 86.4573 423.398 88.1939 422.776 90.1204C422.154 92.0469 422.033 94.0999 422.424 96.0859C423.847 102.835 430.261 125.21 430.261 125.21L435.58 111.36L431.313 85.0742Z" fill="#D0CDE1"/>
<path d="M415.998 142.12C415.998 142.12 405.358 153.631 413.18 159.67C421.002 165.708 422.93 145.816 422.93 145.816L415.998 142.12Z" fill="#FFB8B8"/>
<path d="M431.313 118.109L428.824 128.055L424.558 135.87C424.558 135.87 409.98 145.461 409.98 149.013C409.98 149.013 416.38 140.843 424.558 149.013L431.846 131.43L431.313 118.109Z" fill="#D0CDE1"/>
<path d="M443.509 44.6443C452.504 44.6443 459.796 40.2732 459.796 34.8812C459.796 29.4893 452.504 25.1182 443.509 25.1182C434.514 25.1182 427.222 29.4893 427.222 34.8812C427.222 40.2732 434.514 44.6443 443.509 44.6443Z" fill="#2F2E41"/>
<path d="M475.756 35.6992C475.756 35.6992 464.379 29.3053 459.757 33.9231C455.135 38.5409 473.623 45.6452 473.623 45.6452L475.756 35.6992Z" fill="#FFB8B8"/>
<path d="M480.022 70.8656L482.511 69.0895C482.511 69.0895 485.356 64.8269 487.844 66.2478C490.333 67.6687 504.911 60.9195 504.911 60.9195C504.911 60.9195 499.577 63.4061 499.577 59.1435C499.577 54.8808 498.866 55.5913 495.311 55.5913C491.755 55.5913 491.755 57.3674 490.333 54.8809C488.911 52.3943 489.622 50.9735 487.133 52.3943C484.645 53.8152 481.8 52.7495 481.089 51.6839C480.378 50.6182 467.578 48.8422 467.578 48.8422C467.578 48.8422 472.556 34.2783 473.623 33.2126C474.689 32.147 502.066 44.2244 502.066 44.2244C502.066 44.2244 536.554 53.8152 527.666 64.8269C518.777 75.8386 486.778 92.5338 486.778 92.5338L480.022 70.8656Z" fill="#D0CDE1"/>
</svg>
