<svg width="307" height="85" viewBox="0 0 307 85" fill="none" xmlns="http://www.w3.org/2000/svg">
<path d="M28.3319 42.4979C28.3319 34.6743 42.4979 9.99951 42.4979 9.99951L44.1645 4.82593L42.4979 0C19.0274 0 0 19.0261 0 42.4979C0 65.9684 19.0261 84.9958 42.4979 84.9958L44.1653 80.2184L42.4996 74.9961C42.4996 74.9961 28.3319 50.3215 28.3319 42.4979Z" fill="#6A2799"/>
<path d="M72.5486 12.4472C64.858 4.75661 54.2335 7.62939e-06 42.4979 7.62939e-06V9.99952C42.4979 9.99952 56.6639 35.2404 56.6639 42.4979C56.6639 49.7552 42.4979 74.9963 42.4979 74.9963V84.9958C54.2335 84.9958 64.858 80.2392 72.5486 72.5484C89.1356 55.9618 89.1585 29.0569 72.5486 12.4472Z" fill="#6A2799"/>
<path d="M40.4477 28.4794C36.6359 29.0536 33.2984 31.1023 31.1118 34.071L22.4154 39.2067C22.3792 39.2164 23.2327 38.9906 10.0012 42.4907C10.003 33.5147 13.6432 25.3892 19.5279 19.5099L19.5314 19.5134C19.8092 19.6327 16.7188 18.3078 40.4477 28.4794Z" fill="#9D3BE1"/>
<path d="M10.0067 42.4908L31.1118 34.0708C29.3711 36.4289 28.3359 43.9478 28.4424 44.6503L25.9671 55.9838C25.9061 56.0737 26.7005 54.904 19.5189 65.4769C13.5732 59.5312 10.0012 51.3833 10.0012 42.4908H10.0067Z" fill="#C77EF9"/>
<path d="M28.4424 44.6501C28.3446 44.8783 29.4211 42.3661 19.5189 65.4769C25.4388 71.3968 33.5755 74.9956 42.4979 74.9963C39.5284 60.76 40.0087 63.0639 39.9554 62.8077L34.089 53.898L28.4424 44.6501Z" fill="#9D3BE1"/>
<path d="M38.0671 54.3455L34.089 53.898L38.2888 64.4743L42.4979 74.9921L44.1645 65.8538L42.4979 56.6639L38.0671 54.3455Z" fill="#C77EF9"/>
<path d="M56.5584 40.3619H56.5575H56.5565C56.6102 40.7128 54.7731 49.7251 53.8873 50.925L53.9518 50.9242L53.9528 50.925L64.4753 48.3763L74.998 42.4944C74.9963 33.5739 71.3988 25.4361 65.4786 19.5172L59.3519 28.2729L56.5584 40.3619Z" fill="#C77EF9"/>
<path d="M44.6278 56.5051L53.4004 62.6789L65.4858 65.4714C71.4123 59.5409 74.998 51.3986 74.998 42.4979C74.998 42.4969 74.998 42.4966 74.998 42.4966V42.4942C72.4829 43.5017 56.4594 49.9209 53.953 50.9248L53.952 50.924L53.8875 50.9248L44.6278 56.5051Z" fill="#9D3BE1"/>
<path d="M42.4996 56.6639C42.4976 77.6112 42.4979 74.6482 42.4979 74.9403L42.4987 74.9423L42.4996 74.9963C50.741 74.9963 59.1969 71.7101 65.4858 65.4196L55.067 60.9605L44.6278 56.4532L43.3869 54.9093L42.4996 56.6639Z" fill="#C77EF9"/>
<path d="M19.5279 19.5099L19.5297 19.5117L19.5315 19.5135C19.5315 19.5135 41.0678 30.0134 41.4268 29.9865C41.7801 29.9602 42.1389 28.3319 42.4997 28.3319L44.1645 20.8065L42.4979 9.99951C33.5632 10.0002 25.4351 13.608 19.5279 19.5099Z" fill="#C77EF9"/>
<path d="M45.2721 30.6535L50.9322 31.05L48.3825 20.5248L42.4996 9.99951C42.4993 9.99951 42.4991 9.99951 42.4988 9.99951C42.4984 9.99951 42.4983 9.99951 42.4979 9.99951C42.4979 10.0178 42.4996 28.3068 42.4996 28.3319L45.2721 30.6535Z" fill="#C77EF9"/>
<path d="M56.5566 40.3619H56.5576H56.5584C57.643 37.8273 64.3917 22.0573 65.4785 19.5172C59.5709 13.6113 51.4388 9.99968 42.4994 9.99968C43.5199 12.5472 49.9047 28.4856 50.932 31.0501L53.0051 36.8129L56.5566 40.3619Z" fill="#9D3BE1"/>
<path d="M28.3336 42.4979C28.3336 50.3215 34.676 56.6639 42.4996 56.6639L44.1662 42.4907L42.4996 28.3319C34.6758 28.3319 28.3336 34.6743 28.3336 42.4979Z" fill="#6A2799"/>
<path d="M42.4996 28.3319V56.6639C50.3232 56.6639 56.6655 50.3215 56.6655 42.4979C56.6655 34.6743 50.3232 28.3319 42.4996 28.3319Z" fill="#6A2799"/>
<path d="M105.542 56.27C104.282 56.27 103.277 55.91 102.527 55.19C101.807 54.44 101.447 53.435 101.447 52.175V28.1C101.447 26.87 101.777 25.925 102.437 25.265C103.097 24.605 104.042 24.275 105.272 24.275H116.792C120.302 24.275 123.032 25.175 124.982 26.975C126.932 28.745 127.907 31.22 127.907 34.4C127.907 37.55 126.917 40.025 124.937 41.825C122.987 43.625 120.272 44.525 116.792 44.525H109.727V52.175C109.727 53.435 109.352 54.44 108.602 55.19C107.852 55.91 106.832 56.27 105.542 56.27ZM115.667 38.315C117.197 38.315 118.322 38 119.042 37.37C119.792 36.74 120.167 35.765 120.167 34.445C120.167 31.835 118.667 30.53 115.667 30.53H109.727V38.315H115.667ZM146.436 33.32C149.016 33.32 150.936 34.115 152.196 35.705C153.456 37.265 154.086 39.65 154.086 42.86V52.58C154.086 53.72 153.726 54.62 153.006 55.28C152.286 55.94 151.311 56.27 150.081 56.27C148.851 56.27 147.876 55.94 147.156 55.28C146.436 54.62 146.076 53.72 146.076 52.58V42.68C146.076 40.52 145.146 39.44 143.286 39.44C142.086 39.44 141.126 39.83 140.406 40.61C139.716 41.36 139.371 42.38 139.371 43.67V52.58C139.371 53.72 139.011 54.62 138.291 55.28C137.571 55.94 136.596 56.27 135.366 56.27C134.136 56.27 133.161 55.94 132.441 55.28C131.721 54.62 131.361 53.72 131.361 52.58V27.65C131.361 26.6 131.736 25.745 132.486 25.085C133.236 24.395 134.226 24.05 135.456 24.05C136.626 24.05 137.571 24.365 138.291 24.995C139.011 25.625 139.371 26.465 139.371 27.515V36.515C140.181 35.465 141.186 34.67 142.386 34.13C143.586 33.59 144.936 33.32 146.436 33.32ZM169.768 56.36C167.338 56.36 165.193 55.895 163.333 54.965C161.503 54.005 160.078 52.655 159.058 50.915C158.068 49.175 157.573 47.135 157.573 44.795C157.573 42.455 158.068 40.43 159.058 38.72C160.078 36.98 161.503 35.645 163.333 34.715C165.163 33.785 167.308 33.32 169.768 33.32C172.228 33.32 174.373 33.785 176.203 34.715C178.033 35.645 179.443 36.98 180.433 38.72C181.453 40.43 181.963 42.455 181.963 44.795C181.963 47.135 181.453 49.175 180.433 50.915C179.443 52.655 178.033 54.005 176.203 54.965C174.373 55.895 172.228 56.36 169.768 56.36ZM169.768 50.375C172.618 50.375 174.043 48.515 174.043 44.795C174.043 41.075 172.618 39.215 169.768 39.215C166.918 39.215 165.493 41.075 165.493 44.795C165.493 48.515 166.918 50.375 169.768 50.375ZM198.421 50.555C200.431 50.675 201.436 51.575 201.436 53.255C201.436 54.305 201.031 55.085 200.221 55.595C199.411 56.105 198.256 56.315 196.756 56.225L195.496 56.135C192.796 55.925 190.741 55.115 189.331 53.705C187.951 52.265 187.261 50.27 187.261 47.72V39.755H185.956C183.556 39.755 182.356 38.765 182.356 36.785C182.356 34.835 183.556 33.86 185.956 33.86H187.261V30.935C187.261 29.795 187.621 28.895 188.341 28.235C189.061 27.545 190.036 27.2 191.266 27.2C192.496 27.2 193.471 27.545 194.191 28.235C194.911 28.895 195.271 29.795 195.271 30.935V33.86H197.746C200.146 33.86 201.346 34.835 201.346 36.785C201.346 38.765 200.146 39.755 197.746 39.755H195.271V48.395C195.271 48.965 195.436 49.445 195.766 49.835C196.126 50.225 196.576 50.435 197.116 50.465L198.421 50.555ZM214.724 56.36C212.294 56.36 210.149 55.895 208.289 54.965C206.459 54.005 205.034 52.655 204.014 50.915C203.024 49.175 202.529 47.135 202.529 44.795C202.529 42.455 203.024 40.43 204.014 38.72C205.034 36.98 206.459 35.645 208.289 34.715C210.119 33.785 212.264 33.32 214.724 33.32C217.184 33.32 219.329 33.785 221.159 34.715C222.989 35.645 224.399 36.98 225.389 38.72C226.409 40.43 226.919 42.455 226.919 44.795C226.919 47.135 226.409 49.175 225.389 50.915C224.399 52.655 222.989 54.005 221.159 54.965C219.329 55.895 217.184 56.36 214.724 56.36ZM214.724 50.375C217.574 50.375 218.999 48.515 218.999 44.795C218.999 41.075 217.574 39.215 214.724 39.215C211.874 39.215 210.449 41.075 210.449 44.795C210.449 48.515 211.874 50.375 214.724 50.375ZM243.011 56.405C240.611 56.405 238.376 56.15 236.306 55.64C234.266 55.1 232.586 54.365 231.266 53.435C230.756 53.045 230.381 52.64 230.141 52.22C229.931 51.8 229.826 51.26 229.826 50.6C229.826 49.7 230.096 48.92 230.636 48.26C231.176 47.6 231.806 47.27 232.526 47.27C232.916 47.27 233.291 47.33 233.651 47.45C234.011 47.57 234.461 47.795 235.001 48.125C236.231 48.815 237.446 49.31 238.646 49.61C239.876 49.91 241.256 50.06 242.786 50.06C244.556 50.06 245.891 49.805 246.791 49.295C247.721 48.755 248.186 47.975 248.186 46.955C248.186 46.265 247.751 45.68 246.881 45.2C246.041 44.69 244.421 44.195 242.021 43.715C239.051 43.085 236.726 42.335 235.046 41.465C233.366 40.595 232.181 39.575 231.491 38.405C230.831 37.205 230.501 35.765 230.501 34.085C230.501 32.165 231.071 30.425 232.211 28.865C233.351 27.305 234.911 26.09 236.891 25.22C238.901 24.32 241.151 23.87 243.641 23.87C245.831 23.87 247.781 24.11 249.491 24.59C251.201 25.07 252.761 25.82 254.171 26.84C254.711 27.23 255.086 27.65 255.296 28.1C255.536 28.52 255.656 29.045 255.656 29.675C255.656 30.575 255.386 31.355 254.846 32.015C254.336 32.675 253.721 33.005 253.001 33.005C252.611 33.005 252.251 32.96 251.921 32.87C251.591 32.75 251.126 32.51 250.526 32.15C250.376 32.06 249.941 31.835 249.221 31.475C248.531 31.085 247.706 30.785 246.746 30.575C245.816 30.335 244.796 30.215 243.686 30.215C242.156 30.215 240.926 30.515 239.996 31.115C239.066 31.685 238.601 32.45 238.601 33.41C238.601 33.98 238.766 34.445 239.096 34.805C239.426 35.165 240.041 35.525 240.941 35.885C241.841 36.215 243.176 36.56 244.946 36.92C247.826 37.55 250.091 38.315 251.741 39.215C253.391 40.085 254.561 41.105 255.251 42.275C255.941 43.445 256.286 44.825 256.286 46.415C256.286 48.395 255.731 50.15 254.621 51.68C253.511 53.18 251.951 54.35 249.941 55.19C247.961 56 245.651 56.405 243.011 56.405ZM278.429 48.89C279.119 48.89 279.674 49.16 280.094 49.7C280.544 50.24 280.769 50.945 280.769 51.815C280.769 53.015 280.184 53.93 279.014 54.56C277.994 55.07 276.779 55.505 275.369 55.865C273.989 56.195 272.714 56.36 271.544 56.36C269.084 56.36 266.939 55.895 265.109 54.965C263.279 54.035 261.869 52.7 260.879 50.96C259.889 49.22 259.394 47.18 259.394 44.84C259.394 42.62 259.859 40.64 260.789 38.9C261.749 37.13 263.069 35.765 264.749 34.805C266.459 33.815 268.379 33.32 270.509 33.32C272.579 33.32 274.394 33.77 275.954 34.67C277.514 35.57 278.714 36.845 279.554 38.495C280.424 40.145 280.859 42.08 280.859 44.3C280.859 44.99 280.694 45.53 280.364 45.92C280.064 46.28 279.614 46.46 279.014 46.46H267.134C267.344 47.9 267.809 48.935 268.529 49.565C269.249 50.195 270.314 50.51 271.724 50.51C272.474 50.51 273.164 50.435 273.794 50.285C274.424 50.105 275.129 49.865 275.909 49.565C276.359 49.385 276.794 49.235 277.214 49.115C277.664 48.965 278.069 48.89 278.429 48.89ZM270.734 38.72C269.684 38.72 268.844 39.065 268.214 39.755C267.584 40.415 267.209 41.39 267.089 42.68H274.154C273.974 40.04 272.834 38.72 270.734 38.72ZM294.816 33.32C298.236 33.32 300.756 34.145 302.376 35.795C304.026 37.415 304.851 39.89 304.851 43.22V52.625C304.851 53.765 304.506 54.665 303.816 55.325C303.156 55.955 302.226 56.27 301.026 56.27C299.976 56.27 299.106 55.97 298.416 55.37C297.756 54.77 297.396 53.96 297.336 52.94C296.916 54.02 296.211 54.86 295.221 55.46C294.231 56.06 293.046 56.36 291.666 56.36C290.136 56.36 288.756 56.06 287.526 55.46C286.296 54.83 285.321 53.975 284.601 52.895C283.911 51.785 283.566 50.54 283.566 49.16C283.566 47.57 283.971 46.31 284.781 45.38C285.621 44.42 286.941 43.73 288.741 43.31C290.541 42.89 292.971 42.68 296.031 42.68H297.246V42.14C297.246 41.09 297.006 40.34 296.526 39.89C296.046 39.41 295.236 39.17 294.096 39.17C292.866 39.17 291.066 39.59 288.696 40.43C288.006 40.67 287.421 40.79 286.941 40.79C286.191 40.79 285.591 40.52 285.141 39.98C284.691 39.44 284.466 38.735 284.466 37.865C284.466 37.205 284.601 36.665 284.871 36.245C285.141 35.825 285.576 35.45 286.176 35.12C287.226 34.58 288.546 34.145 290.136 33.815C291.726 33.485 293.286 33.32 294.816 33.32ZM293.556 51.005C294.636 51.005 295.521 50.63 296.211 49.88C296.901 49.1 297.246 48.11 297.246 46.91V46.37H296.526C294.606 46.37 293.241 46.55 292.431 46.91C291.621 47.24 291.216 47.81 291.216 48.62C291.216 49.31 291.426 49.88 291.846 50.33C292.296 50.78 292.866 51.005 293.556 51.005Z" fill="white"/>
</svg>
