<svg width="85" height="85" viewBox="0 0 85 85" fill="none" xmlns="http://www.w3.org/2000/svg">
<path d="M28.3319 42.4979C28.3319 34.6743 42.4979 9.99951 42.4979 9.99951L44.1645 4.82593L42.4979 0C19.0274 0 0 19.0261 0 42.4979C0 65.9684 19.0261 84.9958 42.4979 84.9958L44.1653 80.2184L42.4996 74.9961C42.4996 74.9961 28.3319 50.3215 28.3319 42.4979Z" fill="#6A2799"/>
<path d="M72.5486 12.4472C64.858 4.75661 54.2335 7.62939e-06 42.4979 7.62939e-06V9.99952C42.4979 9.99952 56.6639 35.2404 56.6639 42.4979C56.6639 49.7552 42.4979 74.9963 42.4979 74.9963V84.9958C54.2335 84.9958 64.858 80.2392 72.5486 72.5484C89.1356 55.9618 89.1585 29.0569 72.5486 12.4472Z" fill="#6A2799"/>
<path d="M40.4477 28.4794C36.6359 29.0536 33.2984 31.1023 31.1118 34.071L22.4154 39.2067C22.3792 39.2164 23.2327 38.9906 10.0012 42.4907C10.003 33.5147 13.6432 25.3892 19.5279 19.5099L19.5314 19.5134C19.8092 19.6327 16.7188 18.3078 40.4477 28.4794Z" fill="#9D3BE1"/>
<path d="M10.0067 42.4908L31.1118 34.0708C29.3711 36.4289 28.3359 43.9478 28.4424 44.6503L25.9671 55.9838C25.9061 56.0737 26.7005 54.904 19.5189 65.4769C13.5732 59.5312 10.0012 51.3833 10.0012 42.4908H10.0067Z" fill="#C77EF9"/>
<path d="M28.4424 44.6501C28.3446 44.8783 29.4211 42.3661 19.5189 65.4769C25.4388 71.3968 33.5755 74.9956 42.4979 74.9963C39.5284 60.76 40.0087 63.0639 39.9554 62.8077L34.089 53.898L28.4424 44.6501Z" fill="#9D3BE1"/>
<path d="M38.0671 54.3455L34.089 53.898L38.2888 64.4743L42.4979 74.9921L44.1645 65.8538L42.4979 56.6639L38.0671 54.3455Z" fill="#C77EF9"/>
<path d="M56.5584 40.3619H56.5575H56.5565C56.6102 40.7128 54.7731 49.7251 53.8873 50.925L53.9518 50.9242L53.9528 50.925L64.4753 48.3763L74.998 42.4944C74.9963 33.5739 71.3988 25.4361 65.4786 19.5172L59.3519 28.2729L56.5584 40.3619Z" fill="#C77EF9"/>
<path d="M44.6278 56.5051L53.4004 62.6789L65.4858 65.4714C71.4123 59.5409 74.998 51.3986 74.998 42.4979C74.998 42.4969 74.998 42.4966 74.998 42.4966V42.4942C72.4829 43.5017 56.4594 49.9209 53.953 50.9248L53.952 50.924L53.8875 50.9248L44.6278 56.5051Z" fill="#9D3BE1"/>
<path d="M42.4996 56.6639C42.4976 77.6112 42.4979 74.6482 42.4979 74.9403L42.4987 74.9423L42.4996 74.9963C50.741 74.9963 59.1969 71.7101 65.4858 65.4196L55.067 60.9605L44.6278 56.4532L43.3869 54.9093L42.4996 56.6639Z" fill="#C77EF9"/>
<path d="M19.5279 19.5099L19.5297 19.5117L19.5315 19.5135C19.5315 19.5135 41.0678 30.0134 41.4268 29.9865C41.7801 29.9602 42.1389 28.3319 42.4997 28.3319L44.1645 20.8065L42.4979 9.99951C33.5632 10.0002 25.4351 13.608 19.5279 19.5099Z" fill="#C77EF9"/>
<path d="M45.2721 30.6535L50.9322 31.05L48.3825 20.5248L42.4996 9.99951C42.4993 9.99951 42.4991 9.99951 42.4988 9.99951C42.4984 9.99951 42.4983 9.99951 42.4979 9.99951C42.4979 10.0178 42.4996 28.3068 42.4996 28.3319L45.2721 30.6535Z" fill="#C77EF9"/>
<path d="M56.5566 40.3619H56.5576H56.5584C57.643 37.8273 64.3917 22.0573 65.4785 19.5172C59.5709 13.6113 51.4388 9.99968 42.4994 9.99968C43.5199 12.5472 49.9047 28.4856 50.932 31.0501L53.0051 36.8129L56.5566 40.3619Z" fill="#9D3BE1"/>
<path d="M28.3336 42.4979C28.3336 50.3215 34.676 56.6639 42.4996 56.6639L44.1662 42.4907L42.4996 28.3319C34.6758 28.3319 28.3336 34.6743 28.3336 42.4979Z" fill="#6A2799"/>
<path d="M42.4996 28.3319V56.6639C50.3232 56.6639 56.6655 50.3215 56.6655 42.4979C56.6655 34.6743 50.3232 28.3319 42.4996 28.3319Z" fill="#6A2799"/>
</svg>
