<svg width="60" height="67" viewBox="0 0 60 67" fill="none" xmlns="http://www.w3.org/2000/svg">
<rect x="31.299" y="49.4132" width="12.3179" height="12.3179" transform="rotate(45 31.299 49.4132)" fill="#6A2799"/>
<path d="M19.9996 29.9994C19.9996 24.4767 29.9994 7.05869 29.9994 7.05869L31.1759 3.40664L29.9994 0C13.4315 0 0 13.4306 0 29.9994C0 46.5674 13.4306 59.9989 29.9994 59.9989L31.1765 56.6265L30.0006 52.9401C30.0006 52.9401 19.9996 35.5221 19.9996 29.9994Z" fill="#6A2799"/>
<path d="M51.2123 8.78654C45.7835 3.3577 38.2836 0 29.9995 0V7.05869C29.9995 7.05869 39.9993 24.8764 39.9993 29.9994C39.9993 35.1224 29.9995 52.9402 29.9995 52.9402V59.9989C38.2836 59.9989 45.7835 56.6412 51.2123 51.2122C62.9212 39.5036 62.9373 20.5114 51.2123 8.78654Z" fill="#6A2799"/>
<path d="M28.5522 20.1037C25.8614 20.509 23.5054 21.9552 21.9619 24.0508L15.8231 27.6762C15.7976 27.683 16.4001 27.5236 7.05988 29.9944C7.06117 23.6581 9.63077 17.9224 13.7848 13.7721L13.7873 13.7746C13.9834 13.8588 11.8019 12.9235 28.5522 20.1037Z" fill="#9D3BE1"/>
<path d="M7.06376 29.9944L21.9619 24.0508C20.7331 25.7153 20.0025 31.023 20.0776 31.5189L18.3303 39.5192C18.2872 39.5827 18.848 38.757 13.7785 46.2205C9.58136 42.0234 7.05988 36.2717 7.05988 29.9944H7.06376Z" fill="#C77EF9"/>
<path d="M20.0776 31.5188C20.0086 31.6799 20.7684 29.9065 13.7784 46.2205C17.9573 50.3994 23.7011 52.9398 29.9994 52.9403C27.9032 42.8908 28.2423 44.5171 28.2046 44.3363L24.0635 38.0469L20.0776 31.5188Z" fill="#9D3BE1"/>
<path d="M26.8717 38.3626L24.0635 38.0468L27.0282 45.5126L29.9994 52.9372L31.1759 46.4864L29.9994 39.9992L26.8717 38.3626Z" fill="#C77EF9"/>
<path d="M39.9247 28.4917H39.9242H39.9234C39.9613 28.7394 38.6645 35.1012 38.0392 35.9482L38.0848 35.9476L38.0855 35.9482L45.5133 34.1491L52.9413 29.997C52.9401 23.7 50.4007 17.9555 46.2216 13.7773L41.8967 19.9581L39.9247 28.4917Z" fill="#C77EF9"/>
<path d="M31.5029 39.8872L37.6955 44.2454L46.2267 46.2166C50.4102 42.0302 52.9413 36.2826 52.9413 29.9995C52.9413 29.9988 52.9413 29.9986 52.9413 29.9986V29.9969C51.166 30.7081 39.8549 35.2394 38.0856 35.9481L38.0849 35.9475L38.0394 35.9481L31.5029 39.8872Z" fill="#9D3BE1"/>
<path d="M30.0006 39.9992C29.9992 54.786 29.9994 52.6944 29.9994 52.9006L30 52.902L30.0006 52.9401C35.8182 52.9401 41.7873 50.6204 46.2266 46.1799L38.8719 43.0322L31.5029 39.8505L30.6269 38.7606L30.0006 39.9992Z" fill="#C77EF9"/>
<path d="M13.7849 13.7722L13.7861 13.7735L13.7874 13.7748C13.7874 13.7748 28.99 21.1867 29.2434 21.1677C29.4928 21.1492 29.7461 19.9998 30.0008 19.9998L31.1759 14.6875L29.9995 7.05884C23.6924 7.05931 17.9548 9.60608 13.7849 13.7722Z" fill="#C77EF9"/>
<path d="M31.9578 21.6386L35.9532 21.9184L34.1534 14.4887L30.0006 7.05884C30.0004 7.05884 30.0003 7.05884 30 7.05884C29.9998 7.05884 29.9997 7.05884 29.9995 7.05884C29.9995 7.07178 30.0006 19.982 30.0006 19.9998L31.9578 21.6386Z" fill="#C77EF9"/>
<path d="M39.9234 28.4916H39.9241H39.9247C40.6903 26.7025 45.4543 15.5703 46.2214 13.7773C42.0513 9.60832 36.3108 7.05884 30.0004 7.05884C30.7208 8.85716 35.2279 20.1081 35.953 21.9184L37.4164 25.9864L39.9234 28.4916Z" fill="#9D3BE1"/>
<path d="M20.0008 29.9994C20.0008 35.5222 24.4779 39.9993 30.0006 39.9993L31.1771 29.9944L30.0006 19.9996C24.4778 19.9996 20.0008 24.4767 20.0008 29.9994Z" fill="#6A2799"/>
<path d="M30.0006 19.9996V39.9993C35.5233 39.9993 40.0004 35.5222 40.0004 29.9994C40.0004 24.4767 35.5233 19.9996 30.0006 19.9996Z" fill="#6A2799"/>
</svg>
